<svg fill="none" height="12" width="8" xmlns="http://www.w3.org/2000/svg"><path d="m2.783 7.849c0-.666.075-1.19.226-1.573a2.46 2.46 0 0 1 .731-1.005c.337-.282.593-.54.766-.772a1.27 1.27 0 0 0 .266-.78c0-.687-.296-1.031-.888-1.031-.274 0-.495.1-.663.3-.169.2-.258.472-.267.814h-2.31c.009-.912.296-1.62.86-2.126.566-.51 1.359-.766 2.38-.766 1.016 0 1.802.235 2.358.704.56.47.841 1.137.841 2.003 0 .378-.075.723-.226 1.032-.15.31-.392.627-.724.95l-.786.732a1.84 1.84 0 0 0 -.465.663c-.087.223-.135.508-.144.855zm-.28 2.078c0-.337.12-.613.362-.827.246-.22.552-.329.916-.329.365 0 .668.11.91.329.246.214.369.49.369.827s-.123.615-.37.834c-.241.214-.544.321-.909.321-.364 0-.67-.107-.916-.321a1.076 1.076 0 0 1 -.362-.834z" fill="#464b64"/></svg>