<svg fill="none" height="32" width="131" xmlns="http://www.w3.org/2000/svg"><path d="m20.72 29.12h-3.6v-11.84h-.08c-.64.987-1.56 1.773-2.76 2.36-1.2.56-2.48.84-3.84.84-1.467 0-2.8-.253-4-.76a9.343 9.343 0 0 1 -3.04-2.08 9.756 9.756 0 0 1 -1.92-3.16c-.453-1.227-.68-2.547-.68-3.96 0-1.387.227-2.68.68-3.88.453-1.227 1.093-2.293 1.92-3.2a9.053 9.053 0 0 1 3.04-2.12c1.2-.507 2.533-.76 4-.76 1.28 0 2.52.28 3.72.84 1.227.56 2.187 1.347 2.88 2.36h.08v-2.72h3.6zm-9.84-25.2c-.96 0-1.827.173-2.6.52a5.396 5.396 0 0 0 -1.96 1.36c-.533.56-.947 1.253-1.24 2.08-.293.8-.44 1.68-.44 2.64s.147 1.853.44 2.68c.293.8.707 1.493 1.24 2.08a6.134 6.134 0 0 0 1.96 1.36c.773.32 1.64.48 2.6.48s1.827-.16 2.6-.48a6.134 6.134 0 0 0 1.96-1.36 6.255 6.255 0 0 0 1.24-2.08 7.96 7.96 0 0 0 .44-2.68c0-.96-.147-1.84-.44-2.64-.293-.827-.707-1.52-1.24-2.08a5.396 5.396 0 0 0 -1.96-1.36c-.773-.347-1.64-.52-2.6-.52zm32.093 16.08h-3.6v-2.92h-.08c-.453 1.013-1.24 1.84-2.36 2.48-1.12.613-2.413.92-3.88.92a7.837 7.837 0 0 1 -2.64-.44 5.898 5.898 0 0 1 -2.2-1.28c-.613-.587-1.107-1.333-1.48-2.24-.373-.933-.56-2.027-.56-3.28v-12.2h3.6v11.2c0 .88.12 1.64.36 2.28.24.613.56 1.12.96 1.52.4.373.853.653 1.36.84.533.16 1.08.24 1.64.24.747 0 1.44-.12 2.08-.36s1.2-.613 1.68-1.12c.48-.533.853-1.2 1.12-2s.4-1.747.4-2.84v-9.76h3.6zm15.507-14.2a5.178 5.178 0 0 0 -1.6-1.32c-.614-.373-1.374-.56-2.28-.56-.854 0-1.6.187-2.24.56-.614.347-.92.867-.92 1.56 0 .56.173 1.013.52 1.36.373.347.8.627 1.28.84.506.213 1.04.373 1.6.48s1.04.2 1.44.28a15.79 15.79 0 0 1 2.16.68c.693.267 1.28.613 1.76 1.04.506.427.893.947 1.16 1.56.293.613.44 1.36.44 2.24 0 1.067-.227 1.987-.68 2.76a5.803 5.803 0 0 1 -1.76 1.84c-.72.48-1.547.827-2.48 1.04-.907.213-1.827.32-2.76.32-1.574 0-2.96-.24-4.16-.72-1.174-.48-2.227-1.36-3.16-2.64l2.72-2.24c.586.587 1.24 1.107 1.96 1.56s1.6.68 2.64.68c.453 0 .906-.04 1.36-.12.48-.107.893-.253 1.24-.44.373-.213.666-.467.88-.76.24-.32.36-.68.36-1.08 0-.533-.174-.973-.52-1.32a3.165 3.165 0 0 0 -1.2-.8 6.423 6.423 0 0 0 -1.48-.48c-.507-.133-.96-.24-1.36-.32-.774-.187-1.507-.4-2.2-.64a6.686 6.686 0 0 1 -1.84-.96c-.534-.4-.96-.907-1.28-1.52s-.48-1.373-.48-2.28c0-.987.2-1.84.6-2.56a5.744 5.744 0 0 1 1.64-1.84 7.708 7.708 0 0 1 2.32-1.08c.88-.24 1.76-.36 2.64-.36 1.28 0 2.506.24 3.68.72 1.173.48 2.106 1.28 2.8 2.4zm7.693-4.76h3.6v2.72h.08c.693-1.013 1.64-1.8 2.84-2.36 1.227-.56 2.48-.84 3.76-.84 1.467 0 2.787.253 3.96.76 1.2.507 2.213 1.213 3.04 2.12a9.33 9.33 0 0 1 1.96 3.2c.453 1.2.68 2.493.68 3.88 0 1.413-.227 2.733-.68 3.96a9.412 9.412 0 0 1 -1.96 3.16c-.827.88-1.84 1.573-3.04 2.08-1.173.507-2.493.76-3.96.76a8.97 8.97 0 0 1 -3.84-.84c-1.2-.587-2.12-1.373-2.76-2.36h-.08v14h-3.6zm9.84 2.88c-.96 0-1.827.173-2.6.52a5.396 5.396 0 0 0 -1.96 1.36c-.533.56-.947 1.253-1.24 2.08-.293.8-.44 1.68-.44 2.64s.147 1.853.44 2.68c.293.8.707 1.493 1.24 2.08a6.134 6.134 0 0 0 1.96 1.36c.773.32 1.64.48 2.6.48s1.827-.16 2.6-.48a6.134 6.134 0 0 0 1.96-1.36 6.255 6.255 0 0 0 1.24-2.08 7.96 7.96 0 0 0 .44-2.68c0-.96-.147-1.84-.44-2.64-.293-.827-.707-1.52-1.24-2.08a5.396 5.396 0 0 0 -1.96-1.36c-.773-.347-1.64-.52-2.6-.52zm17.333 7.92c0 .827.174 1.587.52 2.28.374.667.854 1.24 1.44 1.72.587.48 1.267.853 2.04 1.12a7.31 7.31 0 0 0 2.4.4c1.12 0 2.094-.253 2.92-.76.827-.533 1.587-1.227 2.28-2.08l2.72 2.08c-2 2.587-4.8 3.88-8.4 3.88-1.493 0-2.853-.253-4.08-.76-1.2-.507-2.226-1.2-3.08-2.08a9.758 9.758 0 0 1 -1.92-3.16c-.453-1.227-.68-2.547-.68-3.96s.24-2.72.72-3.92c.507-1.227 1.187-2.28 2.04-3.16a9.382 9.382 0 0 1 3.12-2.12c1.2-.507 2.507-.76 3.92-.76 1.68 0 3.094.293 4.24.88 1.174.587 2.134 1.36 2.88 2.32.747.933 1.28 2 1.6 3.2.347 1.173.52 2.373.52 3.6v1.28h-15.2zm11.36-2.88a7.147 7.147 0 0 0 -.4-2.2 4.422 4.422 0 0 0 -1-1.72c-.453-.507-1.026-.893-1.72-1.16-.666-.293-1.453-.44-2.36-.44-.88 0-1.693.173-2.44.52-.72.32-1.333.747-1.84 1.28a6.253 6.253 0 0 0 -1.2 1.8 4.96 4.96 0 0 0 -.4 1.92zm10.867 2.88c0 .827.173 1.587.52 2.28a5.96 5.96 0 0 0 1.44 1.72c.586.48 1.266.853 2.04 1.12.773.267 1.573.4 2.4.4 1.12 0 2.093-.253 2.92-.76.826-.533 1.586-1.227 2.28-2.08l2.72 2.08c-2 2.587-4.8 3.88-8.4 3.88-1.494 0-2.854-.253-4.08-.76-1.2-.507-2.227-1.2-3.08-2.08a9.744 9.744 0 0 1 -1.92-3.16c-.454-1.227-.68-2.547-.68-3.96s.24-2.72.72-3.92c.506-1.227 1.186-2.28 2.04-3.16a9.382 9.382 0 0 1 3.12-2.12c1.2-.507 2.506-.76 3.92-.76 1.68 0 3.093.293 4.24.88 1.173.587 2.133 1.36 2.88 2.32.746.933 1.28 2 1.6 3.2.346 1.173.52 2.373.52 3.6v1.28h-15.2zm11.36-2.88a7.177 7.177 0 0 0 -.4-2.2 4.447 4.447 0 0 0 -1-1.72 4.373 4.373 0 0 0 -1.72-1.16c-.667-.293-1.454-.44-2.36-.44a5.72 5.72 0 0 0 -2.44.52c-.72.32-1.334.747-1.84 1.28a6.237 6.237 0 0 0 -1.2 1.8c-.267.64-.4 1.28-.4 1.92z" fill="#fff"/></svg>