<svg fill="none" height="570" width="573" xmlns="http://www.w3.org/2000/svg" xmlns:xlink="http://www.w3.org/1999/xlink"><filter id="a" color-interpolation-filters="sRGB" filterUnits="userSpaceOnUse" height="368" width="368" x="82" y="0"><feFlood flood-opacity="0" result="BackgroundImageFix"/><feColorMatrix in="SourceAlpha" values="0 0 0 0 0 0 0 0 0 0 0 0 0 0 0 0 0 0 127 0"/><feOffset dy="4"/><feGaussianBlur stdDeviation="20"/><feColorMatrix values="0 0 0 0 0.419214 0 0 0 0 0.400908 0 0 0 0 0.400908 0 0 0 0.25 0"/><feBlend in2="BackgroundImageFix" result="effect1_dropShadow"/><feBlend in="SourceGraphic" in2="effect1_dropShadow" result="shape"/></filter><filter id="b" color-interpolation-filters="sRGB" filterUnits="userSpaceOnUse" height="390" width="390" x="72" y="11"><feFlood flood-opacity="0" result="BackgroundImageFix"/><feColorMatrix in="SourceAlpha" values="0 0 0 0 0 0 0 0 0 0 0 0 0 0 0 0 0 0 127 0"/><feOffset dy="4"/><feGaussianBlur stdDeviation="20"/><feColorMatrix values="0 0 0 0 0.419214 0 0 0 0 0.400908 0 0 0 0 0.400908 0 0 0 0.25 0"/><feBlend in2="BackgroundImageFix" result="effect1_dropShadow"/><feBlend in="SourceGraphic" in2="effect1_dropShadow" result="shape"/></filter><filter id="c" color-interpolation-filters="sRGB" filterUnits="userSpaceOnUse" height="410" width="410" x="64" y="22"><feFlood flood-opacity="0" result="BackgroundImageFix"/><feColorMatrix in="SourceAlpha" values="0 0 0 0 0 0 0 0 0 0 0 0 0 0 0 0 0 0 127 0"/><feOffset dy="4"/><feGaussianBlur stdDeviation="20"/><feColorMatrix values="0 0 0 0 0.419214 0 0 0 0 0.400908 0 0 0 0 0.400908 0 0 0 0.25 0"/><feBlend in2="BackgroundImageFix" result="effect1_dropShadow"/><feBlend in="SourceGraphic" in2="effect1_dropShadow" result="shape"/></filter><filter id="d" color-interpolation-filters="sRGB" filterUnits="userSpaceOnUse" height="48" width="288" x="115" y="218"><feFlood flood-opacity="0" result="BackgroundImageFix"/><feColorMatrix in="SourceAlpha" values="0 0 0 0 0 0 0 0 0 0 0 0 0 0 0 0 0 0 127 0"/><feOffset dy="4"/><feGaussianBlur stdDeviation="2"/><feColorMatrix values="0 0 0 0 0.489083 0 0 0 0 0.489083 0 0 0 0 0.489083 0 0 0 0.25 0"/><feBlend in2="BackgroundImageFix" result="effect1_dropShadow"/><feBlend in="SourceGraphic" in2="effect1_dropShadow" result="shape"/></filter><filter id="e" color-interpolation-filters="sRGB" filterUnits="userSpaceOnUse" height="59.033" width="45.313" x="428.688" y="300.967"><feFlood flood-opacity="0" result="BackgroundImageFix"/><feBlend in="SourceGraphic" in2="BackgroundImageFix" result="shape"/><feColorMatrix in="SourceAlpha" result="hardAlpha" values="0 0 0 0 0 0 0 0 0 0 0 0 0 0 0 0 0 0 127 0"/><feOffset dy="1"/><feGaussianBlur stdDeviation="10"/><feComposite in2="hardAlpha" k2="-1" k3="1" operator="arithmetic"/><feColorMatrix values="0 0 0 0 0.0834838 0 0 0 0 0.107225 0 0 0 0 0.256059 0 0 0 0.5 0"/><feBlend in2="shape" result="effect1_innerShadow"/></filter><filter id="f" color-interpolation-filters="sRGB" filterUnits="userSpaceOnUse" height="121" width="101.393" x="387.107" y="432"><feFlood flood-opacity="0" result="BackgroundImageFix"/><feBlend in="SourceGraphic" in2="BackgroundImageFix" result="shape"/><feColorMatrix in="SourceAlpha" result="hardAlpha" values="0 0 0 0 0 0 0 0 0 0 0 0 0 0 0 0 0 0 127 0"/><feOffset dy="1"/><feGaussianBlur stdDeviation="16.5"/><feComposite in2="hardAlpha" k2="-1" k3="1" operator="arithmetic"/><feColorMatrix values="0 0 0 0 0 0 0 0 0 0 0 0 0 0 0 0 0 0 0.5 0"/><feBlend in2="shape" result="effect1_innerShadow"/></filter><linearGradient id="g" gradientUnits="userSpaceOnUse" x1="451.344" x2="451.344" y1="300.967" y2="359"><stop offset="0" stop-color="#0f3564"/><stop offset="1" stop-color="#102641"/></linearGradient><linearGradient id="h" gradientUnits="userSpaceOnUse" x1="51.063" x2="51.063" y1="219.111" y2="314.644"><stop offset="0" stop-color="#5491be"/><stop offset="1" stop-color="#266c9f"/></linearGradient><linearGradient id="i" gradientUnits="userSpaceOnUse" x1="51.063" x2="51.063" y1="219.111" y2="314.644"><stop offset="0" stop-color="#4e8dba"/><stop offset="1" stop-color="#276ea0"/></linearGradient><mask id="j" height="81" maskUnits="userSpaceOnUse" width="48" x="70" y="218"><path d="m72.974 283.169c6.777 10.591 12.16 15.862 16.147 15.813s12.465-20.289 25.432-60.72c2.265-8.569 3.097-12.905 2.495-13.01-.602-.104-.602-2.208 0-6.313l-6.741 8.7c-1.188 4.207-1.485 6.671-.891 7.395.594.723-5.825 12.764-19.255 36.12-6.644-10.203-9.961-16.522-9.953-18.956.009-2.433-3.24.796-9.747 9.689z" fill="#fff"/></mask><g filter="url(#a)" opacity=".5"><rect fill="#f2e9ff" height="288" rx="8" width="288" x="122" y="36"/><path d="m122 44a8 8 0 0 1 8-8h272a8 8 0 0 1 8 8v26.91h-288zm21.818 149.236a8 8 0 0 1 8-8h228.364a8 8 0 0 1 8 8v18.909a8 8 0 0 1 -8 8h-228.364a8 8 0 0 1 -8-8z" fill="#a582d6"/><path d="m183.09 200.074c0-.964.781-1.746 1.745-1.746h48a1.746 1.746 0 0 1 0 3.491h-48a1.745 1.745 0 0 1 -1.745-1.745zm0 6.109c0-.964.781-1.745 1.745-1.745h36.655a1.745 1.745 0 1 1 0 3.49h-36.655a1.745 1.745 0 0 1 -1.745-1.745z" fill="#f2e9ff"/><circle cx="163.891" cy="201.819" fill="#f2e9ff" r="8.727"/><circle cx="370.727" cy="202.692" fill="#8d62c8" r="4.364"/><circle cx="370.728" cy="202.692" fill="#541ca0" r="2.618"/><path d="m143.818 236.873a8 8 0 0 1 8-8h228.364a8 8 0 0 1 8 8v18.909a8 8 0 0 1 -8 8h-228.364a8 8 0 0 1 -8-8z" fill="#a582d6"/><path d="m183.09 243.71c0-.964.781-1.745 1.745-1.745h48a1.746 1.746 0 0 1 0 3.491h-48a1.746 1.746 0 0 1 -1.745-1.746zm0 6.11c0-.964.781-1.746 1.745-1.746h36.655a1.745 1.745 0 1 1 0 3.491h-36.655a1.745 1.745 0 0 1 -1.745-1.745z" fill="#f2e9ff"/><circle cx="163.891" cy="245.456" fill="#f2e9ff" r="8.727"/><circle cx="370.727" cy="246.328" fill="#8d62c8" r="4.364"/><circle cx="370.728" cy="246.329" fill="#541ca0" r="2.618"/><path d="m143.818 280.51a8 8 0 0 1 8-8h228.364a8 8 0 0 1 8 8v18.909a8 8 0 0 1 -8 8h-228.364a8 8 0 0 1 -8-8z" fill="#a582d6"/><path d="m183.09 287.347c0-.964.781-1.745 1.745-1.745h48a1.746 1.746 0 0 1 0 3.49h-48a1.745 1.745 0 0 1 -1.745-1.745zm0 6.109c0-.964.781-1.745 1.745-1.745h36.655a1.746 1.746 0 0 1 0 3.491h-36.655a1.746 1.746 0 0 1 -1.745-1.746z" fill="#f2e9ff"/><circle cx="163.891" cy="289.092" fill="#f2e9ff" r="8.727"/><circle cx="370.727" cy="289.965" fill="#8d62c8" r="4.364"/><circle cx="370.728" cy="289.966" fill="#541ca0" r="2.618"/><path d="m143.818 93.746a8 8 0 0 1 8-8h228.364a8 8 0 0 1 8 8v72.146a8 8 0 0 1 -8 8h-228.364a8 8 0 0 1 -8-8z" fill="#e0cff8"/><path d="m164.764 118.182a8 8 0 0 1 8-8h5.818a8 8 0 0 1 8 8v55.709h-21.818zm34.908 39.273a8 8 0 0 1 8-8h5.818a8 8 0 0 1 8 8v16.436h-21.818zm34.91-44.51a8 8 0 0 1 8-8h5.818a8 8 0 0 1 8 8v60.946h-21.818zm34.908 38.401a8 8 0 0 1 8-8h5.818a8 8 0 0 1 8 8v22.545h-21.818zm34.91-8.729a8 8 0 0 1 8-8h5.819a8 8 0 0 1 8 8v31.273h-21.819zm34.909-13.09a8 8 0 0 1 8-8h5.818a8 8 0 0 1 8 8v44.364h-21.818z" fill="#a582d6"/></g><g filter="url(#b)" opacity=".5"><rect fill="#f2e9ff" height="310" rx="8" width="310" x="112" y="47"/><path d="m112 55a8 8 0 0 1 8-8h294a8 8 0 0 1 8 8v29.576h-310zm23.484 160.637a8 8 0 0 1 8-8h247.031a8 8 0 0 1 8 8v21.575a8 8 0 0 1 -8 8h-247.031a8 8 0 0 1 -8-8z" fill="#a582d6"/><path d="m177.758 223.607c0-1.037.841-1.878 1.879-1.878h51.666a1.879 1.879 0 0 1 0 3.757h-51.666a1.879 1.879 0 0 1 -1.879-1.879zm0 6.576c0-1.037.841-1.878 1.879-1.878h39.454a1.879 1.879 0 0 1 0 3.757h-39.454a1.879 1.879 0 0 1 -1.879-1.879z" fill="#f2e9ff"/><circle cx="157.091" cy="225.486" fill="#f2e9ff" r="9.394"/><circle cx="379.726" cy="226.425" fill="#8d62c8" r="4.697"/><circle cx="379.726" cy="226.426" fill="#541ca0" r="2.818"/><path d="m135.484 262.605a8 8 0 0 1 8-8h247.031a8 8 0 0 1 8 8v21.576a8 8 0 0 1 -8 8h-247.031a8 8 0 0 1 -8-8z" fill="#a582d6"/><path d="m177.758 270.576c0-1.038.841-1.879 1.879-1.879h51.666a1.879 1.879 0 1 1 0 3.758h-51.666a1.879 1.879 0 0 1 -1.879-1.879zm0 6.576a1.88 1.88 0 0 1 1.879-1.879h39.454a1.879 1.879 0 1 1 0 3.758h-39.454a1.879 1.879 0 0 1 -1.879-1.879z" fill="#f2e9ff"/><circle cx="157.091" cy="272.454" fill="#f2e9ff" r="9.394"/><circle cx="379.726" cy="273.394" fill="#8d62c8" r="4.697"/><circle cx="379.726" cy="273.394" fill="#541ca0" r="2.818"/><path d="m135.484 309.576a8 8 0 0 1 8-8h247.031a8 8 0 0 1 8 8v21.576a8 8 0 0 1 -8 8h-247.031a8 8 0 0 1 -8-8z" fill="#a582d6"/><path d="m177.758 317.547c0-1.038.841-1.879 1.879-1.879h51.666a1.88 1.88 0 0 1 0 3.758h-51.666a1.88 1.88 0 0 1 -1.879-1.879zm0 6.576c0-1.038.841-1.879 1.879-1.879h39.454a1.879 1.879 0 1 1 0 3.758h-39.454a1.879 1.879 0 0 1 -1.879-1.879z" fill="#f2e9ff"/><circle cx="157.091" cy="319.425" fill="#f2e9ff" r="9.394"/><circle cx="379.726" cy="320.365" fill="#8d62c8" r="4.697"/><circle cx="379.726" cy="320.365" fill="#541ca0" r="2.818"/><path d="m135.484 108.545a8 8 0 0 1 8-8h247.031a8 8 0 0 1 8 8v78.879a8 8 0 0 1 -8 8h-247.031a8 8 0 0 1 -8-8z" fill="#e0cff8"/><path d="m158.031 134.848a8 8 0 0 1 8-8h7.485a8 8 0 0 1 8 8v60.575h-23.485zm37.574 42.273a8 8 0 0 1 8-8h7.485a8 8 0 0 1 8 8v18.303h-23.485zm37.577-47.908a8 8 0 0 1 8-8h7.484a8 8 0 0 1 8 8v66.212h-23.484zm37.576 41.332a8 8 0 0 1 8-8h7.485a8 8 0 0 1 8 8v24.879h-23.485zm37.576-9.393a8 8 0 0 1 8-8h7.485a8 8 0 0 1 8 8v34.273h-23.485zm37.574-14.091a8 8 0 0 1 8-8h7.485a8 8 0 0 1 8 8v48.363h-23.485z" fill="#a582d6"/><g fill="#ececec"><circle cx="129.849" cy="65.789" r="3.758"/><circle cx="141.123" cy="65.789" r="3.758"/><circle cx="152.394" cy="65.789" r="3.758"/></g></g><g filter="url(#c)"><rect fill="#f2e9ff" height="330" rx="8" width="330" x="104" y="58"/><path d="m104 66a8 8 0 0 1 8-8h314a8 8 0 0 1 8 8v32h-330z" fill="#a582d6"/><path d="m137 268.5c-.502 0-.991-.049-1.464-.143l-.097.491a7.969 7.969 0 0 1 -2.884-1.195l.278-.416a7.553 7.553 0 0 1 -2.07-2.07l-.416.278a7.969 7.969 0 0 1 -1.195-2.884l.491-.097a7.501 7.501 0 0 1 -.143-1.464v-3h-.5v-6h.5v-6h-.5v-6h.5v-3c0-.502.049-.991.143-1.464l-.491-.097a7.969 7.969 0 0 1 1.195-2.884l.416.278a7.553 7.553 0 0 1 2.07-2.07l-.278-.416a7.969 7.969 0 0 1 2.884-1.195l.097.491a7.501 7.501 0 0 1 1.464-.143h2.538v-.5h5.077v.5h5.077v-.5h5.077v.5h5.077v-.5h5.077v.5h5.077v-.5h5.077v.5h5.077v-.5h5.077v.5h5.077v-.5h5.077v.5h5.077v-.5h5.076v.5h5.077v-.5h5.077v.5h5.077v-.5h5.077v.5h5.077v-.5h5.077v.5h5.077v-.5h5.077v.5h5.077v-.5h5.077v.5h5.077v-.5h5.077v.5h5.076v-.5h5.077v.5h5.077v-.5h5.077v.5h5.077v-.5h5.077v.5h5.077v-.5h5.077v.5h5.077v-.5h5.077v.5h5.077v-.5h5.077v.5h5.076v-.5h5.077v.5h5.077v-.5h5.077v.5h5.077v-.5h5.077v.5h5.077v-.5h5.077v.5h5.077v-.5h5.077v.5h5.077v-.5h5.077v.5h5.076v-.5h5.077v.5h2.539c.502 0 .991.049 1.464.143l.097-.491a7.969 7.969 0 0 1 2.884 1.195l-.278.416a7.553 7.553 0 0 1 2.07 2.07l.416-.278a7.969 7.969 0 0 1 1.195 2.884l-.491.097c.094.473.143.962.143 1.464v3h.5v6h-.5v6h.5v6h-.5v3c0 .502-.049.991-.143 1.464l.491.097a7.969 7.969 0 0 1 -1.195 2.884l-.416-.278a7.553 7.553 0 0 1 -2.07 2.07l.278.416a7.969 7.969 0 0 1 -2.884 1.195l-.097-.491a7.501 7.501 0 0 1 -1.464.143h-2.538v.5h-5.077v-.5h-5.077v.5h-5.077v-.5h-5.077v.5h-5.077v-.5h-5.077v.5h-5.077v-.5h-5.077v.5h-5.077v-.5h-5.077v.5h-5.077v-.5h-5.077v.5h-5.076v-.5h-5.077v.5h-5.077v-.5h-5.077v.5h-5.077v-.5h-5.077v.5h-5.077v-.5h-5.077v.5h-5.077v-.5h-5.077v.5h-5.077v-.5h-5.077v.5h-5.077v-.5h-5.076v.5h-5.077v-.5h-5.077v.5h-5.077v-.5h-5.077v.5h-5.077v-.5h-5.077v.5h-5.077v-.5h-5.077v.5h-5.077v-.5h-5.077v.5h-5.077v-.5h-5.076v.5h-5.077v-.5h-5.077v.5h-5.077v-.5h-5.077v.5h-5.077v-.5h-5.077v.5h-5.077v-.5h-5.077v.5h-5.077v-.5h-5.077v.5h-5.077v-.5h-5.076v.5h-5.077v-.5z" stroke="#d0d0d0" stroke-dasharray="5 5 5 5"/><path d="m174 246a2 2 0 0 1 2-2h55a2 2 0 1 1 0 4h-55a2 2 0 0 1 -2-2zm0 7a2 2 0 0 1 2-2h42a2 2 0 1 1 0 4h-42a2 2 0 0 1 -2-2z" fill="#f2e9ff"/><circle cx="152" cy="248" fill="#f2e9ff" r="10"/><circle cx="389" cy="249" fill="#8d62c8" r="5"/><circle cx="389" cy="249" fill="#541ca0" r="3"/><g filter="url(#d)"><path d="m119 226a8 8 0 0 1 8-8h264a8 8 0 0 1 8 8v24a8 8 0 0 1 -8 8h-264a8 8 0 0 1 -8-8z" fill="#a582d6"/></g><path d="m164 235a2 2 0 0 1 2-2h55a2 2 0 1 1 0 4h-55a2 2 0 0 1 -2-2zm0 7a2 2 0 0 1 2-2h42a2 2 0 1 1 0 4h-42a2 2 0 0 1 -2-2z" fill="#f2e9ff"/><circle cx="142" cy="237" fill="#f2e9ff" r="10"/><circle cx="379" cy="238" fill="#8d62c8" r="5"/><circle cx="379" cy="238" fill="#541ca0" r="3"/><path d="m129 287a8 8 0 0 1 8-8h264a8 8 0 0 1 8 8v24a8 8 0 0 1 -8 8h-264a8 8 0 0 1 -8-8z" fill="#e6def3"/><path d="m174 296a2 2 0 0 1 2-2h55a2 2 0 1 1 0 4h-55a2 2 0 0 1 -2-2zm0 7a2 2 0 0 1 2-2h42a2 2 0 1 1 0 4h-42a2 2 0 0 1 -2-2z" fill="#b094d6"/><circle cx="152" cy="298" fill="#b094d6" r="10"/><circle cx="389" cy="299" fill="#bfb2d0" r="5"/><path d="m129 337a8 8 0 0 1 8-8h264a8 8 0 0 1 8 8v24a8 8 0 0 1 -8 8h-264a8 8 0 0 1 -8-8z" fill="#e6def3"/><path d="m174 346a2 2 0 0 1 2-2h55a2 2 0 1 1 0 4h-55a2 2 0 0 1 -2-2zm0 7a2 2 0 0 1 2-2h42a2 2 0 1 1 0 4h-42a2 2 0 0 1 -2-2z" fill="#b094d6"/><circle cx="152" cy="348" fill="#b094d6" r="10"/><circle cx="389" cy="349" fill="#bfb2d0" r="5"/><path d="m129 123a8 8 0 0 1 8-8h264a8 8 0 0 1 8 8v85a8 8 0 0 1 -8 8h-264a8 8 0 0 1 -8-8z" fill="#e0cff8"/><path d="m153 151a8 8 0 0 1 8-8h9a8 8 0 0 1 8 8v65h-25zm40 45a8 8 0 0 1 8-8h9a8 8 0 0 1 8 8v20h-25zm40-51a8 8 0 0 1 8-8h9a8 8 0 0 1 8 8v71h-25zm40 44a8 8 0 0 1 8-8h9a8 8 0 0 1 8 8v27h-25zm40-10a8 8 0 0 1 8-8h9a8 8 0 0 1 8 8v37h-25zm40-15a8 8 0 0 1 8-8h9a8 8 0 0 1 8 8v52h-25z" fill="#b594e2"/><g fill="#ececec"><circle cx="123" cy="78" r="4"/><circle cx="135" cy="78" r="4"/><circle cx="147" cy="78" r="4"/></g></g><path d="m483 348.826-10.79-10.781-7.303-4.919 2.37-11.643-14.465-9.483-14.812 11.727c4.961 18.88 9.196 28.566 12.705 29.057 3.509.492 6.521.246 9.035-.737l7.537 17.953z" fill="#febf9e"/><path d="m483 348.826-10.79-10.781-7.303-4.919 2.37-11.643-14.465-9.483-14.812 11.727c4.961 18.88 9.196 28.566 12.705 29.057 3.509.492 6.521.246 9.035-.737l7.537 17.953z" fill="#fabb9c"/><path d="m483.596 346.893-20.572 20.603c-.321 56.108 2.608 86.609 8.789 91.504 6.18 4.894 14.625 13.525 25.335 25.893 12.42-36.531 18.704-63.921 18.851-82.171.146-18.25-10.654-36.86-32.403-55.829z" fill="#3177a3"/><path d="m513.959 415.345c.698-5.625-7.539-10.358-24.712-14.199-4.293 20.226-9.356 30.809-15.19 31.75-3.173.511-8.314-1.057-15.449-1.823-5.985-.642-16.859-2.233-23.07-3.684-5.868-1.37-5.321-3.019-9.258-3.653-4.734-.763-5.556.764-8.086 1.899-4.394 1.971-7.845 4.665-7.034 5.365 1.279 1.102 2.633-.454 13.506-1.762 3.482-.419 11.681 2.949 17.805 7.356 12.997 9.352 26.985 24.331 39.35 24.406 18.191.109 29.472-24.166 32.138-45.655z" fill="#fab99b"/><path clip-rule="evenodd" d="m501.5 366.5-14.5 38.093 24.471 12.667c3.029 1.24 4.515.276 4.529-12.667.014-12.944-4.819-25.975-14.5-38.093z" fill="#3e88b6" fill-rule="evenodd"/><path d="m474 339.087-10.393-5.474c2.472-7.542 2.205-11.453-.801-11.73-4.509-.416 1.169 5.478-2.078 15.448-.791 2.427 4.495 6.818 3.674 9.208-2.552 7.43-10.076 12.493-13.329 12.461-4.301-.043-8.697-5.374-8.323-10.657.426-6.023 10.169-.514 12.205-6.449 3.593-10.479-4.459-26.01-3.882-26.626 2.201-2.352-6.934 12.203-10.458 12.122-3.525-.08-17.737-2.088-9.284-13.958 8.454-11.869 5.633-4.183 8.609-2.712s17.08-14.617 22.866-8.26-2.169 9.501.801 9.501 7.214.963 7.516 3.307c.2 1.562 1.16 9.502 2.877 23.819z" fill="url(#g)"/><g filter="url(#e)"><path d="m474 339.087-10.393-5.474c2.472-7.542 2.205-11.453-.801-11.73-4.509-.416 1.169 5.478-2.078 15.448-.791 2.427 4.495 6.818 3.674 9.208-2.552 7.43-10.076 12.493-13.329 12.461-4.301-.043-8.697-5.374-8.323-10.657.426-6.023 10.169-.514 12.205-6.449 3.593-10.479-4.459-26.01-3.882-26.626 2.201-2.352-6.934 12.203-10.458 12.122-3.525-.08-17.737-2.088-9.284-13.958 8.454-11.869 5.633-4.183 8.609-2.712s17.08-14.617 22.866-8.26-2.169 9.501.801 9.501 7.214.963 7.516 3.307c.2 1.562 1.16 9.502 2.877 23.819z" fill="#000"/></g><g filter="url(#f)"><path d="m488.5 477-7.5-10-9.69-8.484c-42.465-19.4-68.22-28.155-77.266-26.264s-7.719 41.807-4.544 119.748l13.5-.5c-.045-62.323 5.221-92.984 12.391-92.984 10.754 0 37.15 17.825 43.609 26.484 16.994-4.875 24.037-6.475 29.5-8z" fill="#172855"/></g><path d="m497 485c-3.5-5.5-7.044-8.591-10-12-5.394-6.219-9.607-9.211-10.258-8.991-.439.149-33.836 3.575-47.986 12.726-12.171 7.87-32.589 32.554-62.256 66.765 1.298 10.87 3.357 12.247 7.177 11.417 5.729-1.244 54.836-56.311 72.424-66.206 11.724-6.596 25.399-3.711 50.899-3.711z" fill="#1d2f5c"/><path d="m366.5 543.5 6 11.5c-2 2-1.5 2-2.981 3.239-1.301 1.089-3.19.313-4.249-.445l-3.087-5.914c-2.332-3.009-6.908-9.879-6.552-13.278s3.387-.881 4.858.803l4.781 4.095z" fill="#000"/><path d="m363 542-.5 2m-1.029-2.999-.794 2.09" stroke="#fff"/><path d="m389.667 551.648 12.965-.392c.956.392 1.367 2.745 1.618 4.094.311 1.668-1.108 3.008-2.251 3.63l-6.668.204c-3.725.789-11.902 1.916-14.806.116-2.905-1.801.682-3.433 2.839-4.024l5.768-2.521z" fill="#000"/><path d="m386.794 554.146 1.583 1.321m-3.149-.381 1.536 1.625" stroke="#fff"/><path clip-rule="evenodd" d="m466 292 4 6 4-6h96a3 3 0 0 0 3-3v-40a3 3 0 0 0 -3-3h-111a3 3 0 0 0 -3 3v40a3 3 0 0 0 3 3z" fill="#5a24a5" fill-rule="evenodd" opacity=".18"/><path d="m464 256h100a2 2 0 0 1 2 2v2a2 2 0 0 1 -2 2h-100a2 2 0 0 1 -2-2v-2a2 2 0 0 1 2-2zm0 10h100a2 2 0 0 1 2 2v2a2 2 0 0 1 -2 2h-100a2 2 0 0 1 -2-2v-2a2 2 0 0 1 2-2zm-.442 10h77.884c.861 0 1.558.895 1.558 2v2c0 1.105-.697 2-1.558 2h-77.884c-.861 0-1.558-.895-1.558-2v-2c0-1.105.697-2 1.558-2z" fill="#a67ae2"/><path clip-rule="evenodd" d="m398 424.001-8.722-41.366h-3.44l9.162 41.366z" fill="#151515" fill-rule="evenodd"/><path clip-rule="evenodd" d="m395 430.951 49 16.049v-8.025l-49-16.975z" fill="#151515" fill-rule="evenodd"/><path clip-rule="evenodd" d="m64.672 198.423c11.626 7.28 17.197 14.536 16.713 21.767-.483 7.232-11.334 12.024-32.552 14.375l-.583-44.583z" fill="#292c34" fill-rule="evenodd"/><path d="m35.22 313.421 44.048-1.421c6.007 26.965 8.513 43.362 7.52 49.189-1.491 8.742-11.148 123.811-13.831 123.714-1.789-.064-5.317-.032-10.585.097-4.052-43.408-5.553-65.296-4.501-65.664s-.28-8.993-3.994-25.874c-5.565 61.025-8.967 91.538-10.206 91.538h-11.164c-4.794-73.409-7.112-112.492-6.953-117.249.015-.473-.162-.721-.238-.924-1.408-3.744 1.893-21.546 9.903-53.406z" fill="#1d2f5c"/><path d="m43.671 484.999c1.238 0 4.64-30.512 10.207-91.538l3.122-77.462-21.78-2.579c-8.011 31.86-11.312 49.662-9.904 53.406.076.203.253.451.238.924-.159 4.757 2.159 43.84 6.953 117.249h11.163z" fill="#172855"/><g clip-rule="evenodd" fill-rule="evenodd"><path d="m64.048 219.183c-.807.317 8.013-4.532 19.766 30.256-4.845 4.831-9.124 8.899-12.838 12.205l8.744 53h-44.252l-17.156-50.894 19.834-23.775h7.877l18.025-1.975c1.683-14.072.538-19.028 0-18.817z" fill="url(#h)" stroke="url(#i)"/><path d="m67.84 181.96c.314 16.72-.531 25.108-2.537 25.166-2.006.057-5.048.085-9.128.085-1.362 5.561-1.362 8.821 0 9.782 1.361.961 4.404 1.442 9.128 1.442 1.053 14.231-.205 21.36-3.774 21.388-5.354.042-6.295 2.289-7.952 1.145-1.104-.763-6.1-1.486-14.985-2.169v-51.842l20.344-9.521z" fill="#e3ae86"/><path d="m34.11 260.893c0 3.492-3.334 26.596-5.031 26.861s22.65 23.752 21.137 24.638c-1.009.591.517 1.563 4.576 2.916 6.32 2.169 9.056 3.703 8.208 4.6-1.27 1.347-8.492 2.002-9.58.706-1.089-1.295-31.1-18.417-32.262-28.614-1.162-10.198-6.393-28.595 1.162-29.626 7.556-1.03 11.79-4.972 11.79-1.481z" fill="#e5ae85"/><path d="m20.557 265.627c0 3.492 1.444 20.874 1.944 24.374.753 5.276 4.897 9.126 6.397 10.626.827.827 2.043 5.021 6.103 6.374.5.5 1 1 1.5 2-1.5-1-.5-.5-1.5-1-1.265-.632-13.282-6.677-14.444-16.875-1.162-10.197-6.394-28.594 1.162-29.625 7.555-1.031-1.162.635-1.162 4.126z" fill="#e1a578"/></g><path d="m38.287 172.832c5.526-.087 7.524 3.452 12.06 2.292 1.227-.314 2.245-.962 3.165-1.75 2.483-2.127 4.247-5.27 7.445-5.58 1.943-.188 4.589 2.077 6.54 4.029 2.448 2.451 3.937 4.789 3.108 5.475-1.488 1.234 12.116 6.923 9.306 13.879-1.873 4.637-6.011 7.244-12.415 7.819v-18.227c-15.2-.458-22.73 1.41-22.593 5.604.081 2.485-3.997-.572-5.34 3.589 2.685 5.484 19.147 26.707 12.461 51.651s-27.55 26.612-37.488 23.29-12.35-11.026-13.35-19.477c-.999-8.452 10.875-18.141 10.875-24.014s10.601-13.559 16.02-15.235c5.42-1.676 6.409-15.923 5.42-16.972-.987-1.05.828-12.568.414-12.799-.413-.231-1.153-3.487 4.372-3.574z" fill="#292c34"/><g mask="url(#j)"><path d="m72.974 283.169c6.777 10.591 12.16 15.862 16.147 15.813s12.465-20.289 25.432-60.72c2.265-8.569 3.097-12.905 2.495-13.01-.602-.104-.602-2.208 0-6.313l-6.741 8.7c-1.188 4.207-1.485 6.671-.891 7.395.594.723-5.825 12.764-19.255 36.12-6.644-10.203-9.961-16.522-9.953-18.956.009-2.433-3.24.796-9.747 9.689z" fill="#e4af87"/><path clip-rule="evenodd" d="m71.83 276.814c8.008 10.627 14.923 17.143 15.988 17.29 1.597.222 21.117-39.768 21.682-41.104.377-.89-1.836 7.122-5.205 23.74l-12.77 25.365-15.78-10.573-3.915-7.577z" fill="#e1a578" fill-rule="evenodd"/></g></svg>