<svg width="309" height="40" fill="none" xmlns="http://www.w3.org/2000/svg"><path d="M10.45 33c-2.835 0-5.458-1.073-7.385-3.025C1.088 27.973 0 25.177 0 22.102c0-2.986 1.112-5.782 3.134-7.87C5.155 12.146 7.854 11 10.739 11c2.686 0 5.218 1.024 7.008 2.827l-2.575 2.677c-1.29-1.128-2.807-1.7-4.517-1.7-3.505 0-6.148 3.085-6.148 7.174 0 2.003.604 3.824 1.701 5.13 1.131 1.345 2.74 2.086 4.53 2.086 1.939 0 3.52-.606 4.818-1.853L18 29.85C16.028 31.97 13.556 33 10.45 33zM31.917 33C25.592 33 21 28.419 21 22.102 21 15.877 25.869 11 32.083 11 38.41 11 43 15.583 43 21.896 43 28.123 38.133 33 31.917 33zm.084-18.277c-3.815 0-6.586 3.052-6.586 7.256 0 4.3 2.707 7.299 6.587 7.299 3.815 0 6.585-3.05 6.585-7.256 0-2.02-.632-3.857-1.78-5.176-1.207-1.389-2.869-2.123-4.806-2.123zM72 31.999h-4.037l-.947-11.303a76.733 76.733 0 0 1-.242-4.703.38.38 0 0 0-.38-.372h-.08a.38.38 0 0 0-.371.301c-.004.023-.492 2.368-1.13 4.402L61.233 32H57.52L53.94 20.41a74.793 74.793 0 0 1-1.172-4.493.378.378 0 0 0-.369-.295h-.08a.379.379 0 0 0-.38.372c0 .023-.041 2.375-.24 4.617L50.75 32H47l2.041-21h5.807L58.1 21.489a85.841 85.841 0 0 1 1.134 4.017.38.38 0 0 0 .367.284.38.38 0 0 0 .365-.284c.006-.024.574-2.254 1.093-3.979L64.274 11h5.684L72 31.999zM103 32h-4.2l-.984-11.304a74.827 74.827 0 0 1-.252-4.702.387.387 0 0 0-.394-.372h-.084a.391.391 0 0 0-.385.301c-.004.023-.511 2.368-1.174 4.402l-3.725 11.674h-3.861L84.218 20.41A72.539 72.539 0 0 1 83 15.917a.39.39 0 0 0-.383-.295h-.086a.385.385 0 0 0-.391.372c-.002.023-.046 2.375-.253 4.617L80.9 32H77l2.123-21h6.04l3.383 10.488a82.39 82.39 0 0 1 1.179 4.017.393.393 0 0 0 .38.284.39.39 0 0 0 .38-.284c.007-.024.597-2.254 1.14-3.979L94.965 11h5.911L103 32zM122 32h-13V11h12.881v3.4h-8.657a.374.374 0 0 0-.368.38v4.601c0 .21.166.377.368.377h7.391v3.319h-7.391a.375.375 0 0 0-.368.378v4.765c0 .21.166.38.368.38H122V32zM144 32h-4.595l-4.403-7.716a.368.368 0 0 0-.318-.188h-1.464a.372.372 0 0 0-.367.378V32H129V11h5.961c3.025 0 5.166.572 6.548 1.746 1.257 1.072 1.869 2.655 1.869 4.842 0 2.651-1.433 4.668-4.036 5.677a.37.37 0 0 0-.217.23.394.394 0 0 0 .032.32L144 32zm-10.78-17.682a.372.372 0 0 0-.367.378v5.786c0 .21.164.378.367.378h1.899c2.856 0 4.243-1.07 4.243-3.27s-1.388-3.271-4.243-3.271h-1.899zM163 32h-15v-3.097l9.316-13.921a.366.366 0 0 0 .014-.385.392.392 0 0 0-.345-.197h-8.773V11h14.573v3.097l-9.314 13.92a.37.37 0 0 0-.013.387c.067.121.2.198.346.198H163V32zM176.061 32H168V11h7.274c5.247 0 7.689 1.654 7.689 5.203 0 2.166-1.243 3.787-3.412 4.446a.38.38 0 0 0-.269.362v.04c0 .19.142.35.332.377 2.745.346 4.386 2.094 4.386 4.676.001 4.351-4.276 5.896-7.939 5.896zm-3.643-8.963a.382.382 0 0 0-.386.38v4.887c0 .21.172.378.386.378h3.562c2.589 0 3.903-.976 3.903-2.906 0-1.25-.676-2.74-3.903-2.74h-3.562v.001zm0-8.719a.381.381 0 0 0-.386.378v4.727a.38.38 0 0 0 .386.377h2.979c2 0 3.242-1.082 3.242-2.823 0-1.689-1.254-2.66-3.446-2.66h-2.775v.001zM207 32h-4.228l-1.399-4.184a.376.376 0 0 0-.354-.257h-8.357a.37.37 0 0 0-.353.257L190.905 32H187l7.37-21h5.261L207 32zm-10.159-17.357a.375.375 0 0 0-.361.277c-.004.015-.405 1.478-.922 3.08l-1.885 5.744a.384.384 0 0 0 .051.342.378.378 0 0 0 .302.155h5.627a.37.37 0 0 0 .302-.155.39.39 0 0 0 .053-.342l-1.889-5.786c-.515-1.563-.917-3.023-.921-3.038a.371.371 0 0 0-.357-.277zM228.999 32h-3.774l-7.578-10.672c-1.166-1.68-2.224-3.423-2.238-3.44a.407.407 0 0 0-.454-.172.377.377 0 0 0-.279.385c.003.02.128 2.007.128 3.929V32H211V11h4.116l7.235 10.183c1.169 1.68 2.23 3.423 2.242 3.44a.39.39 0 0 0 .339.189.452.452 0 0 0 .116-.016.375.375 0 0 0 .277-.387c0-.018-.124-2.006-.124-3.926V11H229V32h-.001zM251 32h-4.783l-6.678-10.021a.364.364 0 0 0-.413-.148.378.378 0 0 0-.257.361V32H235V11h3.869v9.4c0 .166.104.311.257.361a.37.37 0 0 0 .415-.15l6.28-9.611h4.408l-6.611 9.506a.38.38 0 0 0-.002.433L251 32zM298.011 40h-25.025l-10.964-18.664-.004-.007-.018-.033.33-.568L274.509 0h21.98L309 21.296l-.048.078c-.002.004-.004.006-.004.009l-4.853 8.257-5.974 10.171a.025.025 0 0 1-.006.008l-.104.181zM285.498 3.219a.193.193 0 0 0-.147.067c-1.199 1.391-2.054 2.845-2.336 3.324l-5.468 9.31-5.472 9.31c-.281.479-1.134 1.932-1.761 3.65a.19.19 0 0 0 .148.25c1.829.326 3.534.326 4.097.326H296.438c.561 0 2.272 0 4.098-.326a.198.198 0 0 0 .131-.091.179.179 0 0 0 .014-.16c-.626-1.717-1.478-3.17-1.76-3.649l-5.469-9.31-5.471-9.31c-.764-1.3-1.527-2.388-2.334-3.324a.204.204 0 0 0-.149-.067z" fill="#BABABA"/><path d="M10.887 33c3.435 0 6.086-1.248 8.113-3.578l-2.98-3.077c-1.242 1.332-2.816 2.038-4.842 2.038-3.518 0-5.879-2.953-5.879-6.905 0-3.825 2.402-6.861 5.794-6.861 1.781 0 3.31.665 4.555 1.871l3.105-3.243C16.93 11.248 14.24 10 11.178 10 4.968 10 0 15.157 0 21.603 0 28.34 4.885 33 10.887 33zM32 28.466c-3.654 0-5.996-3.036-5.996-6.988 0-3.743 2.263-6.945 5.997-6.945 3.652 0 5.994 3.036 5.994 6.987 0 3.744-2.262 6.946-5.994 6.946zM31.922 33C38.235 33 43 27.802 43 21.394 43 14.907 38.512 10 32.08 10 25.765 10 21 15.198 21 21.603 21 28.093 25.487 33 31.921 33zM61.605 33l3.827-12.072c.68-2.101 1.19-4.49 1.19-4.49h.085s.044 2.389.255 4.78L67.984 33H73l-2.212-22h-6.59l-3.445 10.916c-.55 1.775-1.147 4.038-1.147 4.038s-.593-2.263-1.19-4.077L54.928 11h-6.718L46 33h4.72l1.02-11.865c.212-2.308.256-4.698.256-4.698h.084s.555 2.39 1.234 4.574L57.14 33h4.464zM92.026 33l3.685-12.072c.656-2.101 1.147-4.49 1.147-4.49h.082s.042 2.389.246 4.78L98.167 33H103l-2.129-22h-6.346l-3.316 10.916c-.533 1.775-1.105 4.038-1.105 4.038s-.574-2.263-1.148-4.077L85.599 11H79.13L77 33h4.546l.982-11.865c.204-2.308.247-4.698.247-4.698h.08s.534 2.39 1.188 4.574L87.728 33h4.298zM108 33h15v-4.202h-9.986v-4.821h8.473v-4.119h-8.473v-4.655h9.856V11H108v22zM138.999 18.045c0 2.06-1.387 2.925-4.115 2.925h-2.015v-5.85h2.015c2.601 0 4.115.783 4.115 2.925zM145 33l-5.498-8.858c2.893-1.07 4.531-3.255 4.531-6.097 0-4.45-2.559-7.045-9.318-7.045H128v22h4.868v-7.993h1.554L139.207 33H145V33zM148 33h15v-4.202h-9.112l8.91-14.172V11h-14.596v4.203h8.71L148 29.375V33zM172.869 23.937h3.611c2.18 0 3.566.657 3.566 2.388 0 1.691-1.09 2.555-3.566 2.555h-3.611v-4.943zm0-8.818h2.812c1.553 0 3.105.493 3.105 2.307 0 1.77-1.341 2.473-2.895 2.473h-3.021v-4.78h-.001zM168 33h8.562c3.989 0 8.438-1.771 8.438-6.343 0-2.842-1.847-4.741-4.785-5.11v-.04c2.309-.703 3.737-2.432 3.737-4.863 0-4.78-4.282-5.644-8.189-5.644h-7.762v22H168zM190.914 33l1.553-4.49h8.731l1.553 4.49H208l-7.976-22h-6.047L186 33h4.914zm8.857-8.611h-5.878l1.975-5.81c.546-1.649.967-3.132.967-3.132s.416 1.483.964 3.09l1.972 5.852zM211 33h4.4V22.537c0-1.98-.123-3.997-.123-3.997s1.019 1.77 2.158 3.5l7.37 10.96H229V11h-4.399v9.97c0 1.979.122 3.997.122 3.997s-1.018-1.772-2.159-3.503l-7.043-10.463H211V33zM234 11v22h4.856V22.7l7.158 10.3H252l-8.205-11.783L251.203 11h-5.609l-6.738 9.886V11H234z" fill="#BABABA"/></svg>