<svg width="191" height="37" fill="none" xmlns="http://www.w3.org/2000/svg"><path d="M32.39 29.155V9h-6.585v1.348h2.485V21.49c0 2.058-.497 3.975-1.305 5.394-.932 1.561-2.299 2.342-3.914 2.342-.87 0-1.553-.284-1.988-.78-.808-.923-.932-2.556-.932-3.833V9H14v1.348h2.05v14.407c0 2.129.435 3.62 1.305 4.684.932 1.064 2.361 1.561 4.35 1.561 2.981 0 5.28-1.561 6.523-4.4v3.903H35v-1.348h-2.61zM46.35 28.704V0H40v1.295h2.28v27.41H40V30h9v-1.296h-2.65zM59.35 28.683V9H53v1.317h2.28v18.366H53V30h9v-1.317h-2.65zM85.142 29.155V9h-7.213v1.348h2.722V21.49c0 2.058-.544 3.975-1.43 5.394-1.02 1.561-2.517 2.342-4.286 2.342-.953 0-1.701-.284-2.178-.78-.884-.923-1.02-2.556-1.02-3.833V9H65v1.348h2.246v14.407c0 2.129.476 3.62 1.429 4.684C69.695 30.503 71.26 31 73.438 31c3.266 0 5.784-1.561 7.145-4.4v3.903H88v-1.348h-2.858zM146 21.936c0 2.597-.605 4.51-1.95 5.809-1.547 1.572-3.968 2.255-7.6 2.255H123v-1.298h2.825V1.298H123V0h13.114c2.757 0 4.775.615 6.053 1.913 1.076 1.094 1.614 2.734 1.614 4.989 0 3.554-2.018 5.809-6.053 6.765 4.17.547 8.272 2.05 8.272 8.27zm-6.86-6.15c-.941-.957-2.219-1.367-3.9-1.367h-4.506v14.35h3.833c5.515 0 6.322-3.62 6.322-7.174 0-2.734-.605-4.58-1.749-5.81zm-1.883-13.463c-.672-.683-1.614-1.025-2.824-1.025h-3.699v11.618h3.362c3.363 0 4.574-1.504 4.574-5.467 0-1.64-.202-3.895-1.413-5.126zM.412 0v1.26h2.353v27.91c-.118 3.646-.53 5.9-2.236 6.497-.058 0-.529.132-.529.132v1.194s1.059.066 2.118-.2c3.117-.728 4.823-3.38 4.882-7.49V0H.412zM190.031 13.008c-1.939-.346-3.046-.277-3.808-.138-3.808.483-5.677 4.558-5.677 8.565v7.253h2.769V30h-10.107v-1.243h2.769V10.383H173V9.07h7.546v7.115c2.216-4.697 4.708-7.253 7.269-7.184 1.454 0 2.562.277 3.185.484l-.969 3.523zM163.286 17.475v4.05c0 2.966-1.357 7.74-5 7.74-.715 0-1.215-.218-1.643-.652-.714-.723-1.072-2.097-1.072-4.34 0-3.833.858-4.773 3.358-5.569-.072.073 3.571-1.012 4.357-1.23zm5.071 10.994c-.428-.434-.643-1.302-.643-2.749V14.51c0-2.17-.5-3.617-1.5-4.63C164.929 8.58 162.786 8 159.643 8c-2.357 0-7.857.506-7.857 5.497 0 .506.143.94.428 1.23.357.361.857.506 1.715.506.857 0 1.357-.145 1.714-.507.357-.361.571-1.012.571-1.88 0-1.23.286-2.098.786-2.604.571-.578 1.429-.795 2.714-.795 1 0 1.786.217 2.286.795.857.868 1 2.604 1 4.123V16.1c-1.643.578-2.929.94-4.714 1.374l-2.643.65c-3.929.941-5.643 2.894-5.643 6.366 0 2.386.5 3.978 1.5 4.99 1 1.013 2.5 1.519 4.571 1.519 3.143 0 5.143-.94 6.643-3.255.786 2.532 2.5 2.749 4.857 2.749H171v-1.375c-1.357-.144-2.143-.144-2.643-.65zM105.206 14.385V9.379C102.552 8.508 100.973 8 98.749 8c-3.516 0-7.103 2.104-7.103 6.748 0 4.135 3.515 5.441 6.529 6.602 2.655 1.016 5.166 1.96 5.166 4.571 0 2.467-2.368 3.773-4.664 3.773-3.3 0-5.525-2.104-6.027-5.877H91v5.805C93.87 30.637 96.094 31 98.605 31c2.583 0 5.095-.943 6.601-2.54A6.124 6.124 0 0 0 107 24.108c0-5.224-3.803-6.53-7.175-7.618-2.583-.87-4.807-1.669-4.807-3.99 0-.799.215-1.452.717-1.96.646-.653 1.579-.943 2.799-.943 1.363 0 2.511.363 3.228 1.016 1.579 1.379 1.938 3.773 1.938 3.773h1.506zM57.5 5a2.5 2.5 0 1 0 0-5 2.5 2.5 0 0 0 0 5zM156.5 5a2.5 2.5 0 1 0 0-5 2.5 2.5 0 0 0 0 5zM164 5c1.657 0 3-1.12 3-2.5S165.657 0 164 0s-3 1.12-3 2.5 1.343 2.5 3 2.5z" fill="#BABABA"/></svg>