<svg width="161" height="64" fill="none" xmlns="http://www.w3.org/2000/svg"><path d="M124.982 36a2.108 2.108 0 0 1-.762-.132 1.985 1.985 0 0 1-.647-.395 1.8 1.8 0 0 1-.429-.594 1.683 1.683 0 0 1-.144-.7V1.822c-.003-.24.046-.478.144-.7a1.8 1.8 0 0 1 .429-.595c.185-.17.405-.303.647-.394.242-.09.501-.135.762-.132.265-.008.528.034.774.122.246.089.47.222.659.392.188.17.337.374.438.599.1.224.15.465.147.708v32.472c-.062.458-.299.881-.668 1.193-.37.313-.848.494-1.35.513zM130.5 36a1.254 1.254 0 0 1-.577-.133 1.498 1.498 0 0 1-.489-.394c-.14-.17-.25-.372-.325-.594a2.168 2.168 0 0 1-.109-.7V10.82c-.002-.24.035-.478.109-.7.075-.223.185-.425.325-.594.14-.17.306-.304.489-.395.183-.09.379-.135.577-.132.198-.003.394.042.577.132.183.09.349.225.489.395s.25.371.325.594c.074.222.111.46.109.7v23.473a1.962 1.962 0 0 1-.463 1.225c-.28.32-.653.492-1.037.48zM135.485 35.999a1.26 1.26 0 0 1-.573-.138 1.513 1.513 0 0 1-.484-.395 1.86 1.86 0 0 1-.32-.591 2.14 2.14 0 0 1-.108-.696V19.82c-.002-.24.035-.478.109-.7a1.87 1.87 0 0 1 .325-.594c.14-.17.306-.303.489-.394.183-.09.379-.135.577-.132.198-.003.394.042.577.132.183.09.35.225.489.394.14.17.25.372.325.594.074.222.111.46.109.7v14.474a1.96 1.96 0 0 1-.468 1.232c-.284.32-.66.49-1.047.473zM123 39.5a1.266 1.266 0 0 1 .131-.575c.09-.183.223-.349.392-.488.168-.14.369-.25.59-.326.221-.075.458-.112.697-.11h34.37c.24-.003.478.034.7.108.222.075.424.185.594.325.169.14.303.306.394.489.09.183.135.38.132.577.003.198-.042.394-.132.577-.091.183-.225.35-.394.49-.17.14-.372.25-.594.324-.222.074-.46.111-.7.109h-34.37a2.136 2.136 0 0 1-.697-.111 1.852 1.852 0 0 1-.59-.326 1.494 1.494 0 0 1-.392-.488A1.266 1.266 0 0 1 123 39.5zM123 45.005a2.072 2.072 0 0 1 .135-.768c.093-.245.231-.467.406-.653.175-.187.384-.335.613-.435.23-.1.476-.15.725-.149h26.233a1.77 1.77 0 0 1 .726.145c.231.1.44.247.616.433.176.187.315.408.409.653.093.244.14.505.137.769.003.264-.044.525-.137.77a1.992 1.992 0 0 1-.409.652 1.856 1.856 0 0 1-.616.433 1.77 1.77 0 0 1-.726.145h-26.233a1.771 1.771 0 0 1-.722-.148c-.23-.1-.438-.246-.613-.432a1.993 1.993 0 0 1-.406-.65 2.077 2.077 0 0 1-.138-.765zM123 50a2.115 2.115 0 0 1 .134-.77c.091-.243.226-.465.397-.652.172-.186.376-.333.6-.433.224-.099.465-.148.707-.145h16.324c.242-.003.483.046.707.145.224.1.428.247.6.433.171.187.306.408.397.653.092.244.137.505.134.769.003.264-.042.525-.134.77a1.994 1.994 0 0 1-.397.652 1.824 1.824 0 0 1-.6.433c-.224.099-.465.148-.707.145h-16.333a1.69 1.69 0 0 1-.705-.148 1.81 1.81 0 0 1-.596-.434 1.989 1.989 0 0 1-.395-.651A2.124 2.124 0 0 1 123 50zM68.013 46.762a9.446 9.446 0 0 1 .542-3.283 4.375 4.375 0 0 1 1.626-2.08 5.79 5.79 0 0 1 2.49-1.096 14.55 14.55 0 0 1 3.142-.33c1.099-.028 2.195.123 3.247.446a4.1 4.1 0 0 1 2.274 1.425v-1.75a6.907 6.907 0 0 0-.44-2.74 3.382 3.382 0 0 0-1.19-1.75 4.977 4.977 0 0 0-1.842-.984 8.598 8.598 0 0 0-2.49-.33c-.979.019-1.955.092-2.926.219l-1.948.33a.69.69 0 0 1-.8-.35.71.71 0 0 1-.08-.305V32.54a.699.699 0 0 1 .159-.421.686.686 0 0 1 .382-.234c.758-.218 1.842-.445 2.71-.654a15.186 15.186 0 0 1 3.248-.219c2.925 0 5.09.655 6.61 2.08C84.246 34.518 85 36.598 85 39.328v13.469a.71.71 0 0 1-.203.449.697.697 0 0 1-.445.205H82.08a.697.697 0 0 1-.445-.205.711.711 0 0 1-.203-.45v-1.643a5.65 5.65 0 0 1-2.6 2.191 9.448 9.448 0 0 1-3.574.655c-2.383 0-4.115-.548-5.415-1.643C68.652 51.26 68 49.616 68 47.318v-.547l.013-.01zm3.79.218c0 1.314.326 2.191.974 2.846.647.655 1.841.984 3.467.984.691-.013 1.38-.086 2.058-.218a3.649 3.649 0 0 0 1.626-.655 5.721 5.721 0 0 0 1.084-1.202 4.7 4.7 0 0 0 .44-1.862v-.33a3.278 3.278 0 0 0-.241-1.44 3.245 3.245 0 0 0-.842-1.188c-.758-.654-1.952-.89-3.574-.89h-.66c-1.517 0-2.6.33-3.358.89a3.913 3.913 0 0 0-1.084 2.957v.112l.11-.004zM4.212 23.674v25.62h13.102a.74.74 0 0 1 .47.21.723.723 0 0 1 .216.463v2.36a.724.724 0 0 1-.216.463.74.74 0 0 1-.47.21H.681a.741.741 0 0 1-.467-.211.724.724 0 0 1-.214-.462V23.675a.724.724 0 0 1 .214-.462.741.741 0 0 1 .467-.21h2.734a.766.766 0 0 1 .534.178.747.747 0 0 1 .263.494zM23 46.763a9.958 9.958 0 0 1 .511-3.28 4.343 4.343 0 0 1 1.532-2.078 5.303 5.303 0 0 1 2.345-1.095 12.95 12.95 0 0 1 2.959-.33 9.06 9.06 0 0 1 3.059.445 3.84 3.84 0 0 1 2.141 1.425V40.1a7.286 7.286 0 0 0-.415-2.737 3.394 3.394 0 0 0-1.12-1.749 4.61 4.61 0 0 0-1.735-.997 7.663 7.663 0 0 0-2.345-.329 23.36 23.36 0 0 0-2.756.218l-1.834.33a.614.614 0 0 1-.563-.112.692.692 0 0 1-.192-.238.744.744 0 0 1-.075-.305V32.54a.724.724 0 0 1 .15-.421c.092-.119.22-.2.36-.233.714-.218 1.735-.445 2.552-.655a13.494 13.494 0 0 1 3.06-.218c2.755 0 4.793.655 6.224 2.079C38.29 34.515 39 36.593 39 39.32v13.46a.73.73 0 0 1-.191.448.64.64 0 0 1-.42.206h-2.124a.64.64 0 0 1-.421-.205.732.732 0 0 1-.193-.45v-1.642a5.415 5.415 0 0 1-2.449 2.19A8.454 8.454 0 0 1 29.84 54c-2.245 0-3.876-.548-5.1-1.642-1.12-1.095-1.735-2.738-1.735-5.034l-.004-.56zm3.47.218c0 1.313.308 2.19.918 2.844.61.654 1.734.984 3.266.984.65-.013 1.299-.086 1.938-.218a3.329 3.329 0 0 0 1.532-.655 5.614 5.614 0 0 0 1.02-1.201 4.931 4.931 0 0 0 .415-1.86v-.33a3.454 3.454 0 0 0-.227-1.44 3.249 3.249 0 0 0-.794-1.186c-.713-.654-1.834-.89-3.365-.89h-.619c-1.427 0-2.448.33-3.162.89a3.918 3.918 0 0 0-.805 1.363 4.129 4.129 0 0 0-.216 1.597v.111l.1-.009zM44.142 41.663c-.03-1.581.197-3.158.675-4.668a8.342 8.342 0 0 1 2.03-3.331 8.09 8.09 0 0 1 3.275-1.998 12.86 12.86 0 0 1 4.29-.664c1.56.007 3.113.193 4.629.556 1.25.366 2.46.85 3.614 1.446a.678.678 0 0 1 .34.664v19.11c0 3.665-.918 6.444-2.595 8.334C58.724 63 56.22 64 52.95 64a27.254 27.254 0 0 1-4.404-.335 28.147 28.147 0 0 1-3.274-.777.62.62 0 0 1-.357-.247.603.603 0 0 1-.102-.418v-2.002a.706.706 0 0 1 .295-.551.731.731 0 0 1 .623-.113c1.015.221 2.26.556 3.05.664 1.218.232 2.456.345 3.697.34 2.26 0 3.95-.665 4.854-1.89 1.015-1.333 1.47-3.223 1.47-6.002v-1.89a5.853 5.853 0 0 1-2.71 2.224c-1.26.474-2.601.7-3.95.665a9.286 9.286 0 0 1-3.724-.665 5.085 5.085 0 0 1-2.485-2.11 9.105 9.105 0 0 1-1.47-3.331 17.967 17.967 0 0 1-.459-4.443v-1.447l.138-.008zm4.065 1.22c.01 1.078.085 2.154.225 3.223.116.838.43 1.637.918 2.332.38.618.927 1.12 1.58 1.447a5.51 5.51 0 0 0 2.485.452c1.92 0 3.274-.556 4.18-1.668.904-1.112 1.377-2.78 1.377-4.999v-8.23a9.496 9.496 0 0 0-4.657-.999c-2.145 0-3.725.556-4.744 1.776-1.02 1.22-1.47 3.001-1.47 5.555v1.112h.106zM90 52.34V32.191a.687.687 0 0 1 .209-.441.729.729 0 0 1 .456-.202h2.333a.73.73 0 0 1 .456.202.687.687 0 0 1 .208.441v1.936a6.496 6.496 0 0 1 2.781-2.37 8.936 8.936 0 0 1 3.889-.753 9.875 9.875 0 0 1 3.11.438 6.826 6.826 0 0 1 2.446 1.402 5.953 5.953 0 0 1 1.556 2.37c.373 1.075.561 2.203.556 3.337v13.785a.69.69 0 0 1-.209.441.73.73 0 0 1-.456.203h-2.554a.73.73 0 0 1-.456-.203.69.69 0 0 1-.209-.441V39.962c0-2.046-.335-3.447-1.112-4.306-.666-.861-1.889-1.3-3.667-1.314-1.777 0-3.224.438-4.115 1.402-.89.963-1.334 2.474-1.334 4.63v11.953a.687.687 0 0 1-.208.442.73.73 0 0 1-.456.202h-2.555c-.339.131-.669-.197-.669-.631z" fill="#BABABA"/></svg>