<svg fill="none" height="731" preserveAspectRatio="none" width="1440" xmlns="http://www.w3.org/2000/svg" xmlns:xlink="http://www.w3.org/1999/xlink"><linearGradient id="a" gradientUnits="userSpaceOnUse" x1="1324.52" x2="137.488" y1="108.689" y2="352.491"><stop offset="0" stop-color="#8f62ca"/><stop offset="1" stop-color="#5240ad"/></linearGradient><clipPath id="b"><path d="m0 0h44v72h-44z" transform="translate(1093.02 545)"/></clipPath><clipPath id="c"><path d="m0 0h64v142h-64z" transform="matrix(.98308272 -.18316214 .18316214 .98308272 727.031365 488.725907)"/></clipPath><mask id="d" height="3000%" maskUnits="userSpaceOnUse" width="3000%" x="-1000%" y="-1000%"><path d="m.025 0h1439.995v630s-436.12 99.43-719.995 100c-283.717.569-720-97-720-97v-633z" fill="url(#a)"/></mask><g mask="url(#d)"><path d="m.025 0h1439.995v630s-436.12 99.43-719.995 100c-283.717.569-720-97-720-97v-633z" fill="url(#a)"/><path d="m1569.02 702.5c0 101.897-82.6 184.5-184.5 184.5-101.89 0-184.5-82.603-184.5-184.5 0-53.035 68.18-68.344 104-102 33.01-31.007 31.64-82.5 80.5-82.5 101.9 0 184.5 82.603 184.5 184.5z" fill="#4916ab" fill-opacity=".08"/></g><g clip-path="url(#b)"><g clip-rule="evenodd" fill="#9169d5" fill-rule="evenodd"><path d="m1115.89 586.582c-2.06-1.733 2.6-9.308 4.65-11.758 2.06-2.451 11.97-6.697 14.85-3.137 2.88 3.561-4.72 11.626-6.63 12.762-1.9 1.135-10.81 3.865-12.87 2.133zm1.18-16.409c-2.68.233-4.74-8.417-5.02-11.604-.28-3.188 3.73-13.198 8.28-12.716s4.88 11.562 4.34 13.709c-.54 2.146-4.91 10.378-7.6 10.611z"/><path d="m1115.94 583.459c-.92 2.53-9.63.744-12.64-.35-3-1.095-10.38-8.956-8.02-12.879s12.54.464 14.26 1.862c1.71 1.397 7.33 8.838 6.4 11.367zm-1.22 20.335c-1.73-2.064 4.17-8.715 6.62-10.772 2.46-2.056 12.95-4.517 15.17-.51 2.22 4.006-6.67 10.629-8.74 11.417s-11.32 1.928-13.05-.135z"/><path d="m1114.94 603.459c-.92 2.53-9.63.744-12.64-.35-3-1.095-10.38-8.956-8.02-12.879s12.54.464 14.26 1.862c1.71 1.397 7.33 8.838 6.4 11.367z"/></g><path d="m1116.85 568.724c-3.55 28.342-3.88 44.021-.99 47.04" stroke="#9169d5" stroke-width="2"/></g><path d="m1284.55 541c16.21 15.809 17.83 38.333 12 62.5-16.5 0-44.5-20-51.5-34-4.92-9.824-6.17-38-4-50.5 7.83 2 23.5 2.5 43.5 22z" fill="#754ab5"/><path d="m1272.05 568.5c15.16 20.5 45.5 71.4 45.5 111" stroke="#6238a1"/><path d="m1330.62 574.731c-13.07 12.741-14.37 30.895-9.67 50.372 13.3 0 35.86-16.119 41.51-27.402 3.95-7.918 4.97-30.627 3.22-40.701-6.31 1.612-18.94 2.015-35.06 17.731z" fill="#754ab5"/><path d="m1340.7 596.895c-12.23 16.522-36.68 57.544-36.68 89.46" stroke="#6238a1"/><path d="m1629.4 97c0 194.404-157.59 352-352 352-100.17 0-182.9-135.841-247-203-60.299-63.18-323.996-48.265-323.996-142.5 0-194.404 376.596-358.5 570.996-358.5 194.41 0 352 157.596 352 352z" fill="#4916ab" fill-opacity=".08"/><path d="m177.025 328.5c0 117.637-24.864 210.5-142.5 210.5-117.637 0-200.5-93.363-200.5-211s-4.637-312 113-312c66.86 0 277.949 40.807 317 89 29.655 36.599-87 172.725-87 223.5z" fill="#311072" fill-opacity=".08"/><path d="m156.546 511c16.214 15.809 17.834 38.333 12.001 62.5-16.5 0-44.5-20-51.501-34-4.912-9.824-6.166-38-3.999-50.5 7.833 2 23.499 2.5 43.499 22z" fill="#5f4ab9"/><path d="m144.046 538.5c15.167 20.5 45.5 71.4 45.5 111" stroke="#483890"/><path d="m202.621 544.731c-13.067 12.741-14.373 30.895-9.671 50.372 13.298 0 35.865-16.119 41.506-27.402 3.959-7.918 4.97-30.627 3.224-40.701-6.313 1.612-18.94 2.015-35.059 17.731z" fill="#5f4ab9"/><path d="m212.696 566.895c-12.224 16.522-36.671 57.544-36.671 89.46" stroke="#483890"/><path clip-rule="evenodd" d="m780.031 636.162c-8.083 2.318-26.656-2.221-27.998-6.899-1.341-4.679-5.472-18.456-10.362-22.673s-24.076-6.874-26.993-17.049c-2.918-10.174 7.725-7.608 3.631-21.884-4.093-14.277-28.049-39.148-23.044-45.818 5.004-6.669 7.572-5.119 28.868 1.067 12.697 3.688 9.516 12.137 15.862 14.497 6.347 2.36 24.965 8.047 24.85 16.91-.115 8.862 5.595 19.513 8.231 28.705 2.636 9.191 18.987 21.003 20.429 26.032s-5.391 24.794-13.474 27.112z" fill="#824ec5" fill-rule="evenodd" opacity=".264"/><path d="m779.02 633.129c-31.319-48.193-47.709-74.84-49.172-79.941m29.832 23.709c-1.259 15.734-1.308 24.291-.148 25.672m-10.786-16.319c-11.682-3.963-18.668-5.616-20.958-4.96" opacity=".264" stroke="#9868d7"/><g clip-path="url(#c)"><path clip-rule="evenodd" d="m791.566 620.983c-8.408.082-25.102-9.24-25.149-14.106-.047-4.867-.359-19.247-3.95-24.614-3.59-5.367-21.375-13.038-21.477-23.622s9.472-5.276 9.329-20.127c-.144-14.851-16.61-45.204-10.01-50.3s8.662-2.917 27.542 8.716c11.256 6.937 5.939 14.233 11.428 18.198s21.92 14.406 19.449 22.918c-2.472 8.512.196 20.299.288 29.86.093 9.562 12.708 25.302 12.758 30.533.051 5.231-11.8 22.463-20.208 22.544z" fill="#824ec5" fill-rule="evenodd"/><path d="m791.399 617.791c-17.352-54.793-26.053-84.843-26.105-90.15m22.44 30.798c-5.404 14.83-7.73 23.065-6.98 24.705m-6.05-18.602c-10.205-6.931-16.498-10.385-18.88-10.362" stroke="#9868d7"/></g></svg>